<svg aria-hidden="true" style="position: absolute; width: 0; height: 0; overflow: hidden;" version="1.1"
     xmlns="http://www.w3.org/2000/svg" xmlns:xlink="http://www.w3.org/1999/xlink">
    <defs>
        <symbol id="arrow" viewBox="0 0 34 32">
            <path d="M19.419 8.774l0.166-0.188c0.721-0.721 1.855-0.776 2.64-0.166l0.188 0.166 6.083 6.088 0.11 0.136 0.143 0.223 0.107 0.225 0.071 0.211 0.058 0.296 0.014 0.236-0.006 0.15-0.035 0.251-0.059 0.223-0.088 0.222-0.105 0.195-0.147 0.209-0.146 0.163-6 6c-0.781 0.781-2.047 0.781-2.828 0-0.721-0.721-0.776-1.855-0.166-2.64l0.166-0.188 2.584-2.586h-15.17c-1.105 0-2-0.895-2-2s0.895-2 2-2h15.17l-2.584-2.586c-0.721-0.721-0.776-1.855-0.166-2.64v0z"></path>
        </symbol>
        <symbol id="arrow-down" viewBox="0 0 51 32">
            <path d="M4.544 10.944l16.576 16.576c2.496 2.496 6.528 2.496 9.024 0l16.576-16.576c4.032-4.032 1.152-10.944-4.544-10.944h-33.152c-5.696 0-8.512 6.912-4.48 10.944z"></path>
        </symbol>
        <symbol id="close" viewBox="0 0 32 32">
            <path d="M19.233 16.001l12.098-12.098c0.894-0.894 0.894-2.338 0-3.232s-2.338-0.894-3.232 0l-12.098 12.098-12.098-12.098c-0.894-0.894-2.338-0.894-3.232 0s-0.894 2.338 0 3.232l12.098 12.098-12.098 12.098c-0.894 0.893-0.894 2.338 0 3.232 0.446 0.446 1.031 0.67 1.616 0.67s1.17-0.224 1.616-0.67l12.098-12.098 12.098 12.098c0.445 0.446 1.031 0.67 1.616 0.67s1.17-0.224 1.616-0.67c0.894-0.894 0.894-2.338 0-3.232l-12.098-12.098z"></path>
        </symbol>
        <symbol id="info" viewBox="0 0 32 32">
            <path d="M16 2.667c7.364 0 13.333 5.97 13.333 13.333s-5.97 13.333-13.333 13.333c-7.364 0-13.333-5.97-13.333-13.333s5.97-13.333 13.333-13.333zM16 5.333c-5.891 0-10.667 4.776-10.667 10.667s4.776 10.667 10.667 10.667c5.891 0 10.667-4.776 10.667-10.667s-4.776-10.667-10.667-10.667zM16 13.333c0.736 0 1.333 0.597 1.333 1.333v8c0 0.736-0.597 1.333-1.333 1.333s-1.333-0.597-1.333-1.333v-8c0-0.736 0.597-1.333 1.333-1.333zM16 8c0.736 0 1.333 0.597 1.333 1.333s-0.597 1.333-1.333 1.333c-0.736 0-1.333-0.597-1.333-1.333s0.597-1.333 1.333-1.333z"></path>
        </symbol>
        <symbol id="plus" viewBox="0 0 32 32">
            <path d="M16 1.6c1.325 0 2.4 1.075 2.4 2.4v9.6h9.6c1.325 0 2.4 1.075 2.4 2.4s-1.075 2.4-2.4 2.4h-9.6v9.6c0 1.325-1.075 2.4-2.4 2.4s-2.4-1.075-2.4-2.4v-9.6h-9.6c-1.325 0-2.4-1.075-2.4-2.4s1.075-2.4 2.4-2.4h9.6v-9.6c0-1.325 1.075-2.4 2.4-2.4z"></path>
        </symbol>
        <symbol id="upload" viewBox="0 0 32 32">
            <path d="M26 16c1.026 0 1.871 0.772 1.987 1.767l0.013 0.233v4c0 3.195-2.498 5.807-5.647 5.99l-0.353 0.010h-12c-3.195 0-5.807-2.498-5.99-5.647l-0.010-0.353v-4c0-1.105 0.895-2 2-2 1.026 0 1.871 0.772 1.987 1.767l0.013 0.233v4c0 1.026 0.772 1.871 1.767 1.987l0.233 0.013h12c1.026 0 1.871-0.772 1.987-1.767l0.013-0.233v-4c0-1.105 0.895-2 2-2zM15.703 4.022l0.117-0.014 0.18-0.008 0.15 0.006 0.251 0.035 0.223 0.059 0.222 0.088 0.195 0.105 0.209 0.147 0.163 0.146 4 4c0.781 0.781 0.781 2.047 0 2.828s-2.047 0.781-2.828 0l-0.586-0.584v7.17c0 1.105-0.895 2-2 2s-2-0.895-2-2v-7.172l-0.586 0.586c-0.781 0.781-2.047 0.781-2.828 0s-0.781-2.047 0-2.828l4-4c0.071-0.071 0.146-0.135 0.224-0.193l0.223-0.143 0.225-0.107 0.211-0.071 0.235-0.050z"></path>
        </symbol>
    </defs>
</svg>
